<?xml version="1.0" encoding="utf-8"?>
<!-- Generator: Adobe Illustrator 24.0.2, SVG Export Plug-In . SVG Version: 6.00 Build 0)  -->
<svg version="1.1" id="Layer_1" xmlns="http://www.w3.org/2000/svg" xmlns:xlink="http://www.w3.org/1999/xlink" x="0px" y="0px"
	 viewBox="0 0 242.4 41.9" style="enable-background:new 0 0 242.4 41.9;" xml:space="preserve">
<style type="text/css">
	.st0{fill:#54BBFE;}
	.st1{fill:#FFFFFF;}
</style>
<title>socializer</title>
<path class="st0" d="M35.3,16.6C34.7,7.7,27.7,0.7,18.9,0h-1.2C7.9,0,0,7.9,0,17.7c0,4.2,1.5,8.3,4.2,11.4L6.1,31l10.5,10.5
	c0.6,0.6,1.5,0.6,2.1,0L29.1,31l1.9-1.9C34,25.7,35.5,21.2,35.3,16.6z M24.9,24.4l-1,1l-5.7,5.7c-0.2,0.1-0.4,0.2-0.6,0.2
	c-0.2,0-0.4-0.1-0.6-0.2l-5.7-5.6l-1-1c-3.5-4-3-10.1,1-13.6c1.7-1.5,4-2.3,6.3-2.3h0.7c4.8,0.4,8.6,4.2,8.9,9
	C27.4,20.1,26.6,22.6,24.9,24.4z"/>
<path class="st1" d="M49.2,29.6l2.3-5.2c2.1,1.2,4.5,1.9,6.9,1.9c2,0,2.7-0.4,2.7-1.1c0-2.6-11.6-0.5-11.6-8.3
	c0-3.9,3.3-7.1,9.8-7.1c2.7-0.1,5.5,0.6,7.9,1.8l-2.1,5.1c-1.8-1-3.8-1.5-5.8-1.6c-2.1,0-2.7,0.6-2.7,1.3c0,2.5,11.6,0.4,11.6,8.2
	c0,3.8-3.3,7.1-9.8,7.1C55.2,31.8,52,31.1,49.2,29.6z"/>
<path class="st1" d="M69.4,20.8c0-6.4,5-11,11.8-11s11.8,4.6,11.8,11c0,6.4-5,11-11.8,11S69.4,27.2,69.4,20.8z M85.9,20.8
	c0-3.3-2.1-5.2-4.7-5.2s-4.7,2-4.7,5.2c0,3.3,2.1,5.2,4.7,5.2S85.9,24.1,85.9,20.8z"/>
<path class="st1" d="M94.8,20.8c0-6.4,4.9-11,11.7-11c4.1,0,7.3,1.5,9.4,4.2l-4.5,4c-1-1.5-2.7-2.4-4.6-2.5c-2.9,0-4.9,2-4.9,5.2
	s2,5.2,4.9,5.2c1.8,0,3.5-0.9,4.6-2.5l4.5,4c-2.1,2.7-5.3,4.2-9.4,4.2C99.7,31.8,94.8,27.3,94.8,20.8z"/>
<path class="st1" d="M117.9,10.3h7.1v21h-7.1V10.3z"/>
<path class="st1" d="M142.7,27.6h-8l-1.4,3.7h-7.2l9.2-21h7l9.2,21h-7.3L142.7,27.6z M140.8,22.6l-2-5.3l-2,5.3H140.8z"/>
<path class="st1" d="M152.6,10.3h7.1v15.5h9.5v5.5h-16.5L152.6,10.3z"/>
<path class="st1" d="M171.1,10.3h7.1v21h-7.1V10.3z"/>
<path class="st1" d="M200.1,25.8v5.5h-19.3V27l9.6-11.1h-9.3v-5.5h18.5v4.3L190,25.8L200.1,25.8z"/>
<path class="st1" d="M219.6,26v5.3h-17.4v-21h17.1v5.3h-10.1v2.5h8.9v5.1h-8.9V26L219.6,26z"/>
<path class="st1" d="M231.3,26h-1.9v5.3h-7.1v-21h10.1c5.8,0,9.6,3.1,9.6,7.9c0.1,2.8-1.4,5.4-4,6.6l4.4,6.5h-7.6L231.3,26z
	 M232,15.8h-2.6v4.9h2.6c1.9,0,2.9-0.9,2.9-2.5C234.9,16.7,233.9,15.8,232,15.8L232,15.8z"/>
</svg>
