<svg xmlns="http://www.w3.org/2000/svg" viewBox="0 0 242.44529 41.91908"><title>socializer</title><path d="M35.29,16.62A17.73,17.73,0,0,0,18.9.04H17.67A17.66,17.66,0,0,0,4.27,29.17l1.89,1.9L16.63,41.54a1.5,1.5,0,0,0,2.08,0L29.18,31.07l1.9-1.9A17.62,17.62,0,0,0,35.29,16.62ZM24.97,24.49l-1,1-5.68,5.68a.89.89,0,0,1-.57.24.91.91,0,0,1-.57-.24l-5.73-5.64-1-1A9.65,9.65,0,0,1,17.67,8.57h.66a9.67,9.67,0,0,1,8.91,9.05A9.4,9.4,0,0,1,24.97,24.49Z" transform="translate(-0.03811 -0.04)" fill="#54bbfe"/><path d="M49.25244,29.665l2.27735-5.15527a14.39106,14.39106,0,0,0,6.92285,1.918c2.00781,0,2.727-.41894,2.727-1.13867,0-2.63672-11.59766-.50976-11.59766-8.331,0-3.896,3.2666-7.07227,9.76953-7.07227a16.65211,16.65211,0,0,1,7.91162,1.82764l-2.12744,5.12451a12.9434,12.9434,0,0,0-5.84375-1.5581c-2.06787,0-2.72754.59912-2.72754,1.31884,0,2.51709,11.59766.41944,11.59766,8.15137,0,3.83594-3.26611,7.07227-9.76953,7.07227A18.80212,18.80212,0,0,1,49.25244,29.665Z" transform="translate(-0.03811 -0.04)" fill="#fff"/><path d="M69.42432,20.854c0-6.35351,5.00439-10.96826,11.8374-10.96826s11.8374,4.61475,11.8374,10.96826c0,6.353-5.00439,10.96827-11.8374,10.96827S69.42432,27.207,69.42432,20.854Zm16.54248,0c0-3.2666-2.09766-5.24462-4.70508-5.24462s-4.70508,1.978-4.70508,5.24462c0,3.26612,2.09766,5.24463,4.70508,5.24463S85.9668,24.12012,85.9668,20.854Z" transform="translate(-0.03811 -0.04)" fill="#fff"/><path d="M94.84082,20.854c0-6.44336,4.94531-10.96826,11.6875-10.96826,4.10547,0,7.34277,1.498,9.41016,4.19531l-4.46485,3.98584a5.66656,5.66656,0,0,0-4.585-2.45751c-2.9375,0-4.915,2.03808-4.915,5.24462s1.97754,5.24463,4.915,5.24463a5.66706,5.66706,0,0,0,4.585-2.458l4.46485,3.98633c-2.06739,2.69727-5.30469,4.19532-9.41016,4.19532C99.78613,31.82227,94.84082,27.29688,94.84082,20.854Z" transform="translate(-0.03811 -0.04)" fill="#fff"/><path d="M117.97949,10.36523h7.07324V31.34277h-7.07324Z" transform="translate(-0.03811 -0.04)" fill="#fff"/><path d="M142.76465,27.68652H134.793l-1.4082,3.65625h-7.19239l9.1709-20.97754h6.95215l9.16992,20.97754h-7.3125Zm-1.94824-5.09472-2.03711-5.27442-2.03809,5.27442Z" transform="translate(-0.03811 -0.04)" fill="#54bbfe"/><path d="M152.62793,10.36523h7.07227V25.8584h9.4707v5.48437h-16.543Z" transform="translate(-0.03811 -0.04)" fill="#54bbfe"/><path d="M171.12109,10.36523h7.07227V31.34277h-7.07227Z" transform="translate(-0.03811 -0.04)" fill="#54bbfe"/><path d="M200.13184,25.8584v5.48437H180.8623v-4.3457l9.58985-11.148h-9.29V10.36523h18.49023v4.34522l-9.58984,11.148Z" transform="translate(-0.03811 -0.04)" fill="#54bbfe"/><path d="M219.64355,26.00879v5.334h-17.4414V10.36523h17.05176v5.334H209.15527v2.45752h8.87012V23.251h-8.87012v2.75781Z" transform="translate(-0.03811 -0.04)" fill="#54bbfe"/><path d="M231.36426,26.06836h-1.918v5.27441H222.374V10.36523h10.09961c5.84375,0,9.55957,3.05665,9.55957,7.91114a7.02593,7.02593,0,0,1-3.95605,6.59375l4.40625,6.47265h-7.55274Zm.66015-10.249h-2.57812v4.91455h2.57812c1.94727,0,2.877-.92871,2.877-2.45752C234.90137,16.74805,233.97168,15.81934,232.02441,15.81934Z" transform="translate(-0.03811 -0.04)" fill="#54bbfe"/></svg>