<?xml version="1.0" standalone="no"?>
<!DOCTYPE svg PUBLIC "-//W3C//DTD SVG 20010904//EN"
 "http://www.w3.org/TR/2001/REC-SVG-20010904/DTD/svg10.dtd">
<svg version="1.0" xmlns="http://www.w3.org/2000/svg"
 width="460.000000pt" height="460.000000pt" viewBox="0 0 460.000000 460.000000"
 preserveAspectRatio="xMidYMid meet">
<metadata>
Created by potrace 1.14, written by Peter Selinger 2001-2017
</metadata>
<g transform="translate(0.000000,460.000000) scale(0.100000,-0.100000)"
fill="#000000" stroke="none">
<path d="M0 2300 l0 -2300 2300 0 2300 0 0 2300 0 2300 -2300 0 -2300 0 0
-2300z m2621 1862 c343 -81 658 -268 874 -522 476 -557 524 -1327 122 -1925
-50 -73 -168 -198 -646 -678 -322 -324 -599 -595 -615 -604 -19 -10 -44 -14
-74 -10 -45 5 -54 14 -652 613 -654 656 -660 663 -760 869 -186 384 -211 819
-70 1220 43 121 128 285 203 392 126 178 345 372 544 480 155 84 383 159 558
182 118 16 417 6 516 -17z"/>
<path d="M2205 3400 c-214 -25 -397 -117 -537 -269 -224 -246 -290 -595 -170
-904 57 -148 114 -217 451 -545 265 -259 316 -304 346 -309 36 -6 37 -6 351
308 174 173 330 334 349 359 49 66 111 196 137 286 19 67 23 103 23 234 -1
150 -2 158 -34 252 -116 337 -418 572 -763 592 -46 2 -114 1 -153 -4z"/>
</g>
</svg>
