<svg xmlns="http://www.w3.org/2000/svg" viewBox="0 0 193.5 41.95"><title>cro-pins-light</title><path d="M35.3,16.6A17.91,17.91,0,0,0,18.9,0H17.7A17.8,17.8,0,0,0,0,17.7,17.43,17.43,0,0,0,4.2,29.1L6.1,31,16.6,41.5a1.45,1.45,0,0,0,2.1,0L29.2,31l1.9-1.9A17.17,17.17,0,0,0,35.3,16.6ZM25,24.5l-1,1-5.7,5.7a1.42,1.42,0,0,1-.6.2,1.42,1.42,0,0,1-.6-.2l-5.7-5.6-1-1A9.6,9.6,0,0,1,17.7,8.7h.7a9.67,9.67,0,0,1,8.9,9A10,10,0,0,1,25,24.5Z" fill="#54bbfe"/><path d="M48.1,21c0-6.5,5-11,11.7-11,4.1,0,7.4,1.5,9.4,4.2l-4.5,4a6,6,0,0,0-4.6-2.5c-3,0-4.9,2-4.9,5.3s2,5.3,4.9,5.3a5.69,5.69,0,0,0,4.6-2.5l4.5,4c-2,2.7-5.2,4.2-9.4,4.2C53.1,32,48.1,27.4,48.1,21Z" fill="#fff"/><path d="M80.3,26.2H78.4v5.3H71.3v-21H81.4c5.9,0,9.6,3.1,9.6,7.9A7.08,7.08,0,0,1,87,25l4.4,6.5H83.9ZM81,16H78.4v4.9H81c2,0,2.9-.9,2.9-2.5S83,16,81,16Z" fill="#fff"/><path d="M92.9,21c0-6.4,5-11,11.9-11s11.9,4.6,11.9,11-5,11-11.9,11S92.9,27.4,92.9,21Zm16.6,0c0-3.3-2.1-5.3-4.7-5.3s-4.7,2-4.7,5.3,2.1,5.3,4.7,5.3S109.5,24.3,109.5,21Z" fill="#fff"/><path d="M138.9,18.4c0,4.9-3.7,7.9-9.6,7.9h-3v5.2h-7.1v-21h10.1C135.2,10.5,138.9,13.5,138.9,18.4Zm-7.1,0c0-1.5-.9-2.5-2.9-2.5h-2.6v4.9h2.6c1.9.1,2.9-.8,2.9-2.4Z" fill="#54bbfe"/><path d="M141.2,10.5h7.1v21h-7.1Z" fill="#54bbfe"/><path d="M172.5,10.5v21h-5.8l-8-9.6v9.6h-6.9v-21h5.8l8,9.6V10.5Z" fill="#54bbfe"/><path d="M174.6,29.8l2.3-5.2a14,14,0,0,0,6.9,1.9c2,0,2.7-.4,2.7-1.1,0-2.6-11.6-.5-11.6-8.4,0-3.9,3.3-7.1,9.8-7.1a16.39,16.39,0,0,1,7.9,1.8l-2.1,5.2a13.33,13.33,0,0,0-5.9-1.6c-2.1,0-2.7.6-2.7,1.3,0,2.5,11.6.4,11.6,8.2,0,3.8-3.3,7.1-9.8,7.1A17.19,17.19,0,0,1,174.6,29.8Z" fill="#54bbfe"/></svg>