<svg xmlns="http://www.w3.org/2000/svg" viewBox="0 0 193.56 41.97"><title>cro-pins</title><path d="M36.47,17.64A17.73,17.73,0,0,0,20.08,1.06c-.42,0-.85,0-1.23,0A17.66,17.66,0,0,0,5.45,30.19l1.89,1.9L17.81,42.56a1.5,1.5,0,0,0,2.08,0L30.36,32.09l1.9-1.9A17.62,17.62,0,0,0,36.47,17.64ZM26.15,25.51l-1,1-5.68,5.68a.89.89,0,0,1-.57.24.91.91,0,0,1-.57-.24L12.6,26.55l-1-1A9.65,9.65,0,0,1,18.85,9.59h.66a9.67,9.67,0,0,1,8.91,9.05A9.4,9.4,0,0,1,26.15,25.51Z" transform="translate(-1.18 -1.02)" fill="#54bbfe"/><path d="M49.32,22c0-6.46,5-11,11.72-11,4.11,0,7.36,1.5,9.43,4.21l-4.47,4a5.69,5.69,0,0,0-4.6-2.47c-2.95,0-4.93,2-4.93,5.26s2,5.26,4.93,5.26A5.69,5.69,0,0,0,66,24.79l4.47,4C68.4,31.5,65.15,33,61,33,54.27,33,49.32,28.46,49.32,22Z" transform="translate(-1.18 -1.02)" fill="#fff"/><path d="M81.53,27.23H79.61v5.29H72.52v-21H82.65c5.86,0,9.58,3.07,9.58,7.94a7,7,0,0,1-4,6.61l4.41,6.49H85.11ZM82.2,17H79.61v4.93H82.2c2,0,2.88-.93,2.88-2.46S84.15,17,82.2,17Z" transform="translate(-1.18 -1.02)" fill="#fff"/><path d="M94.07,22c0-6.37,5-11,11.87-11s11.87,4.63,11.87,11-5,11-11.87,11S94.07,28.37,94.07,22Zm16.59,0c0-3.28-2.11-5.26-4.72-5.26s-4.72,2-4.72,5.26,2.1,5.26,4.72,5.26S110.66,25.28,110.66,22Z" transform="translate(-1.18 -1.02)" fill="#fff"/><path d="M140.11,19.42c0,4.86-3.73,7.93-9.59,7.93h-3v5.17H120.4v-21h10.12C136.38,11.48,140.11,14.55,140.11,19.42Zm-7.15,0c0-1.54-.93-2.47-2.89-2.47h-2.58v4.93h2.58C132,21.88,133,21,133,19.42Z" transform="translate(-1.18 -1.02)" fill="#54bbfe"/><path d="M142.42,11.48h7.1v21h-7.1Z" transform="translate(-1.18 -1.02)" fill="#54bbfe"/><path d="M173.68,11.48v21h-5.83l-8-9.56v9.56h-6.92v-21h5.83l8,9.56V11.48Z" transform="translate(-1.18 -1.02)" fill="#54bbfe"/><path d="M175.78,30.84l2.29-5.17A14.45,14.45,0,0,0,185,27.59c2,0,2.74-.42,2.74-1.14,0-2.65-11.64-.51-11.64-8.36,0-3.9,3.28-7.09,9.8-7.09a16.75,16.75,0,0,1,7.94,1.83L191.71,18a13,13,0,0,0-5.86-1.56c-2.07,0-2.73.6-2.73,1.32,0,2.53,11.63.42,11.63,8.18,0,3.84-3.28,7.09-9.8,7.09A18.9,18.9,0,0,1,175.78,30.84Z" transform="translate(-1.18 -1.02)" fill="#54bbfe"/></svg>