<svg xmlns="http://www.w3.org/2000/svg" viewBox="0 0 242.40001 41.95"><title>socializer-dark</title><path d="M35.3,16.6A17.82632,17.82632,0,0,0,18.9,0H17.7A17.66865,17.66865,0,0,0,0,17.7,17.4309,17.4309,0,0,0,4.2,29.1L6.1,31,16.6,41.5a1.45,1.45,0,0,0,2.1,0L29.1,31,31,29.1A17.68968,17.68968,0,0,0,35.3,16.6ZM24.9,24.4l-1,1-5.7,5.7a1.42132,1.42132,0,0,1-.6.2,1.42132,1.42132,0,0,1-.6-.2l-5.7-5.6-1-1A9.59532,9.59532,0,0,1,17.6,8.6h.7a9.66542,9.66542,0,0,1,8.9,9A8.86528,8.86528,0,0,1,24.9,24.4Z" fill="#54bbfe"/><path d="M49.2,29.6l2.3-5.2a14.03859,14.03859,0,0,0,6.9,1.9c2,0,2.7-.4,2.7-1.1,0-2.6-11.6-.5-11.6-8.3,0-3.9,3.3-7.1,9.8-7.1a16.65247,16.65247,0,0,1,7.9,1.8l-2.1,5.1a13.27706,13.27706,0,0,0-5.8-1.6c-2.1,0-2.7.6-2.7,1.3,0,2.5,11.6.4,11.6,8.2,0,3.8-3.3,7.1-9.8,7.1A18.311,18.311,0,0,1,49.2,29.6Z" fill="#2f3b59"/><path d="M69.4,20.8c0-6.4,5-11,11.8-11S93,14.4,93,20.8s-5,11-11.8,11S69.4,27.2,69.4,20.8Zm16.5,0c0-3.3-2.1-5.2-4.7-5.2s-4.7,2-4.7,5.2c0,3.3,2.1,5.2,4.7,5.2S85.9,24.1,85.9,20.8Z" fill="#2f3b59"/><path d="M94.8,20.8c0-6.4,4.9-11,11.7-11,4.1,0,7.3,1.5,9.4,4.2l-4.5,4a5.81427,5.81427,0,0,0-4.6-2.5c-2.9,0-4.9,2-4.9,5.2s2,5.2,4.9,5.2a5.57492,5.57492,0,0,0,4.6-2.5l4.5,4c-2.1,2.7-5.3,4.2-9.4,4.2C99.7,31.8,94.8,27.3,94.8,20.8Z" fill="#2f3b59"/><path d="M117.9,10.3H125v21h-7.1Z" fill="#2f3b59"/><path d="M142.7,27.6h-8l-1.4,3.7h-7.2l9.2-21h7l9.2,21h-7.3Zm-1.9-5-2-5.3-2,5.3Z" fill="#2f3b59"/><path d="M152.6,10.3h7.1V25.8h9.5v5.5H152.7Z" fill="#2f3b59"/><path d="M171.1,10.3h7.1v21h-7.1Z" fill="#2f3b59"/><path d="M200.1,25.8v5.5H180.8V27l9.6-11.1h-9.3V10.4h18.5v4.3L190,25.8Z" fill="#2f3b59"/><path d="M219.6,26v5.3H202.2v-21h17.1v5.3H209.2v2.5h8.9v5.1h-8.9V26Z" fill="#2f3b59"/><path d="M231.3,26h-1.9v5.3h-7.1v-21h10.1c5.8,0,9.6,3.1,9.6,7.9a6.9145,6.9145,0,0,1-4,6.6l4.4,6.5h-7.6Zm.7-10.2h-2.6v4.9H232c1.9,0,2.9-.9,2.9-2.5,0-1.5-1-2.4-2.9-2.4Z" fill="#2f3b59"/></svg>